<svg xmlns="http://www.w3.org/2000/svg" width="166" height="400" style="shape-rendering:geometricPrecision;text-rendering:geometricPrecision;image-rendering:optimizeQuality;fill-rule:evenodd;clip-rule:evenodd"><path fill="#170f0a" d="M106.5 81.5c-1.208.734-2.541 1.067-4 1-5.011.166-10.011 0-15-.5-1.29-3.025-.624-3.359 2-1 8.505 1.92 15.671-.247 21.5-6.5a224.599 224.599 0 0 0-.5-19c.992.172 1.658-.162 2-1 2.51-14.345-3.49-22.845-18-25.5-24.388-.611-35.221 11.222-32.5 35.5l2 4a72.479 72.479 0 0 0 9.5 8c2.333-.333 2.667-1.333 1-3 .528-1.836 1.194-3.503 2-5-.964 4.293.369 7.46 4 9.5-2.416.661-4.082 2.161-5 4.5-.797-.457-1.13-1.124-1-2v-1c-15.51-7.454-19.843-19.287-13-35.5-5.35-3.37-7.184-8.204-5.5-14.5 5.593-12.098 13.26-13.765 23-5 .483.948.65 1.948.5 3 8.571-1.696 16.904-.863 25 2.5 7.002 4.335 10.335 10.669 10 19a83.713 83.713 0 0 1-2 12.5c1.382 5.43 1.216 10.763-.5 16-1.432 1.939-3.265 3.272-5.5 4Z" style="opacity:.93"/><path fill="#dbd5d5" d="M66.5 20.5c6.046-.316 10.046 2.351 12 8l-9 5.5a90.015 90.015 0 0 1-7.5 7.5c-4.141-2.508-5.475-6.174-4-11 1.261-4.755 4.095-8.088 8.5-10Z" style="opacity:1"/><path fill="#e0d9d9" d="M112.5 54.5c-.859-3.865-3.192-6.531-7-8-.762-1.762-2.096-2.762-4-3a19.577 19.577 0 0 0-3.5-4c-2 2.83-4.167 5.497-6.5 8-1.903.296-3.57.962-5 2a39.704 39.704 0 0 1-11 1c.665 5.977.998 11.977 1 18-.806 1.497-1.472 3.164-2 5 1.667 1.667 1.333 2.667-1 3a72.479 72.479 0 0 1-9.5-8l-2-4C59.279 40.222 70.112 28.389 94.5 29c14.51 2.655 20.51 11.155 18 25.5Z" style="opacity:1"/><path fill="#a55826" d="M101.5 43.5c.762 1.762 2.096 2.762 4 3 .111.617.444 1.117 1 1.5a10.255 10.255 0 0 0-4 1.5c2.487.25 4.82.75 7 1.5.88 1.356 1.214 2.856 1 4.5.435 6.342.602 12.675.5 19-5.829 6.253-12.995 8.42-21.5 6.5-2.624-2.359-3.29-2.025-2 1 4.989.5 9.989.666 15 .5.468 5.705-2.198 8.872-8 9.5-7.505 1.39-14.505.224-21-3.5-4.194-3.556-3.861-6.223 1-8-.13.876.203 1.543 1 2 .918-2.339 2.584-3.839 5-4.5-3.631-2.04-4.964-5.207-4-9.5.989-5.475 1.322-11.142 1-17 3.109.236 6.109-.097 9-1a2.428 2.428 0 0 1 2 .5c-1.196.654-1.196 1.154 0 1.5 2.677-.574 5.343-1.24 8-2a20.216 20.216 0 0 0-6-1.5c.556-.383.89-.883 1-1.5a76.322 76.322 0 0 0 6.5-8 19.577 19.577 0 0 1 3.5 4Z" style="opacity:1"/><path fill="#2d2623" d="M101.5 43.5c1.904.238 3.238 1.238 4 3-1.904-.238-3.238-1.238-4-3Z" style="opacity:1"/><path fill="#452c20" d="M105.5 46.5c3.808 1.469 6.141 4.135 7 8-.342.838-1.008 1.172-2 1 .214-1.644-.12-3.144-1-4.5-2.18-.75-4.513-1.25-7-1.5a10.255 10.255 0 0 1 4-1.5c-.556-.383-.889-.883-1-1.5Z" style="opacity:1"/><path fill="#4e2815" d="M91.5 47.5c-.11.617-.444 1.117-1 1.5 2.077.192 4.077.692 6 1.5-2.657.76-5.323 1.426-8 2-1.196-.346-1.196-.846 0-1.5a2.428 2.428 0 0 0-2-.5v-1c1.43-1.038 3.097-1.704 5-2Z" style="opacity:1"/><path fill="#2c211b" d="M86.5 49.5v1c-2.891.903-5.891 1.236-9 1 .322 5.858-.011 11.525-1 17a163.245 163.245 0 0 0-1-18c3.734.177 7.4-.156 11-1Z" style="opacity:1"/><path fill="#0a0300" d="M90.5 54.5c1.844.704 2.344 2.037 1.5 4-1.188-1.063-1.688-2.397-1.5-4Z" style="opacity:1"/><path fill="#211105" d="M104.5 53.5c1.149.291 1.816 1.124 2 2.5l-.5 2.5c-1.269-1.405-1.769-3.071-1.5-5Z" style="opacity:1"/><path fill="#241306" d="M100.5 57.5c1.293-1.145 2.459-.812 3.5 1a10.1 10.1 0 0 1 1.5 6c-3.064.356-5.73-.477-8-2.5 2.087.218 4.087.051 6-.5-.535-1.761-1.535-3.094-3-4Z" style="opacity:1"/><path fill="#010100" d="M74.5 79.5v1c-4.861 1.777-5.194 4.444-1 8 6.495 3.724 13.495 4.89 21 3.5 5.802-.628 8.468-3.795 8-9.5 1.459.067 2.792-.266 4-1 13.636 7.916 20.636 19.916 21 36-.605 21.897-1.271 43.73-2 65.5a29.672 29.672 0 0 1 5 10.5c.001 3.339-1.499 5.672-4.5 7a278.83 278.83 0 0 0 3 28 472.562 472.562 0 0 1-4.5 108c-3.941-.047-6.274 1.786-7 5.5a56.854 56.854 0 0 0 5 8.5c1.545.952 3.212 1.285 5 1v3c3.877-.017 4.543 1.149 2 3.5h6c.845 1.558.179 2.558-2 3a83.397 83.397 0 0 0 12.5 7.5 111.02 111.02 0 0 1 2.5 8c-.029 1.529-.696 2.696-2 3.5-16.858 2.579-32.858.079-48-7.5a209.999 209.999 0 0 0 31 7.5 35.063 35.063 0 0 0 15-1c1.783-1.067 2.283-2.567 1.5-4.5-8.841 3.916-17.674 3.916-26.5 0 8.221 1.181 16.388 1.181 24.5 0 .825-2.201.325-4.034-1.5-5.5-6.596-1.795-11.929-5.295-16-10.5l-3-3c-1.513-.809-3.18-.976-5-.5 3.547-2.045 3.547-4.378 0-7a4.934 4.934 0 0 0-3-.5v-7c.904-.709 1.237-1.709 1-3h-3c2.098-1.435 4.431-2.602 7-3.5a9.454 9.454 0 0 0 1.5-2.5 502.175 502.175 0 0 0 4.5-85c.175-10.538-.491-20.872-2-31v-3a455.036 455.036 0 0 0-1-15c-1.291-.237-2.291.096-3 1a56.723 56.723 0 0 1-17 .5 258.368 258.368 0 0 1-14.5-4.5l-1.5 1c2.44 1.209 4.44 2.876 6 5 .268 1.599-.066 2.932-1 4 .322-2.222-.345-4.056-2-5.5-7.154-2.326-12.987-6.493-17.5-12.5a470.931 470.931 0 0 0-15-25c-3.562-2.702-6.062-6.036-7.5-10a219.31 219.31 0 0 1 3-24c-5.764-3.691-12.097-5.358-19-5a142.099 142.099 0 0 0-1.5 33c2.008 9.02 6.342 16.687 13 23a854.568 854.568 0 0 1 24.5 25 56.363 56.363 0 0 0-11-7c-4.307.153-8.14 1.487-11.5 4a121.244 121.244 0 0 0 0 22 532.687 532.687 0 0 0 5.5 37l-2-1c-6.444-25.534-8.777-51.368-7-77.5-9.962-10.037-14.962-22.203-15-36.5a129.635 129.635 0 0 1 3-21c3.346-24.683 17.346-39.35 42-44Z" style="opacity:.956"/><path fill="#a95a27" d="M92.5 204.5c.718 1.637.885 3.303.5 5-2.07 1.937-4.237 3.604-6.5 5-2.333 1.333-4.667 1.333-7 0a105.837 105.837 0 0 0-9-11 854.568 854.568 0 0 0-24.5-25c-6.658-6.313-10.992-13.98-13-23a142.099 142.099 0 0 1 1.5-33c6.903-.358 13.236 1.309 19 5a219.31 219.31 0 0 0-3 24c1.438 3.964 3.938 7.298 7.5 10a470.931 470.931 0 0 1 15 25c4.513 6.007 10.346 10.174 17.5 12.5 1.655 1.444 2.322 3.278 2 5.5Z" style="opacity:1"/><path fill="#a35726" d="M117.5 123.5h6c.167 18.336 0 36.67-.5 55a100.886 100.886 0 0 1-5-21 577.896 577.896 0 0 1-.5-34Z" style="opacity:1"/><path fill="#facb75" d="M120.5 198.5c1.973 4.371 3.306 9.038 4 14v3c-.03 10.529.637 20.862 2 31a502.175 502.175 0 0 1-4.5 85 9.454 9.454 0 0 1-1.5 2.5c-2.569.898-4.902 2.065-7 3.5a145.053 145.053 0 0 1-17-.5 3.942 3.942 0 0 1-1-2 595.998 595.998 0 0 1 5-72.5 197.253 197.253 0 0 0-5-27c.468-3.944 1.8-7.611 4-11-.346-1.196-.846-1.196-1.5 0a42.283 42.283 0 0 0-3.5 8c-8.224 12.466-13.724 26.132-16.5 41a394.109 394.109 0 0 1-20 27c-3.898 5.784-6.065 12.117-6.5 19-6.728.113-11.562-2.887-14.5-9-3.82-9.462-2.82-18.462 3-27a148.73 148.73 0 0 0 13-16c.497-2.646.664-5.313.5-8a532.687 532.687 0 0 1-5.5-37 121.244 121.244 0 0 1 0-22c3.36-2.513 7.193-3.847 11.5-4a56.363 56.363 0 0 1 11 7 47.791 47.791 0 0 0 4.5 8c1.129 1.641 2.629 2.641 4.5 3 .634 1.447 1.8 2.113 3.5 2 1.7.113 2.866-.553 3.5-2 8.936-1.55 11.269-6.217 7-14-1.56-2.124-3.56-3.791-6-5l1.5-1c4.783 1.64 9.616 3.14 14.5 4.5 5.704.687 11.37.521 17-.5Z" style="opacity:1"/><path fill="#291e11" d="M70.5 203.5a105.837 105.837 0 0 1 9 11c-1.871-.359-3.371-1.359-4.5-3a47.791 47.791 0 0 1-4.5-8Z" style="opacity:1"/><path fill="#322515" d="M93.5 200.5c4.269 7.783 1.936 12.45-7 14 2.263-1.396 4.43-3.063 6.5-5 .385-1.697.218-3.363-.5-5 .934-1.068 1.268-2.401 1-4Z" style="opacity:1"/><path fill="#a8884c" d="M120.5 198.5c.709-.904 1.709-1.237 3-1 .416 4.993.749 9.993 1 15-.694-4.962-2.027-9.629-4-14Z" style="opacity:1"/><path fill="#1f1409" d="M79.5 214.5c2.333 1.333 4.667 1.333 7 0-.634 1.447-1.8 2.113-3.5 2-1.7.113-2.866-.553-3.5-2Z" style="opacity:1"/><path fill="#554426" d="M95.5 235.5c-.904-.709-1.237-1.709-1-3a42.283 42.283 0 0 1 3.5-8c.654-1.196 1.154-1.196 1.5 0-2.2 3.389-3.532 7.056-4 11Z" style="opacity:1"/><path fill="#0e0c09" d="M94.5 232.5c-.237 1.291.096 2.291 1 3a197.253 197.253 0 0 1 5 27 595.998 595.998 0 0 0-5 72.5 3.942 3.942 0 0 0 1 2c5.657.499 11.324.666 17 .5h3c.237 1.291-.096 2.291-1 3-.47-1.193-1.47-1.86-3-2a49.273 49.273 0 0 1-11 1v15c-.768-.763-1.268-1.763-1.5-3l-1 1a49.248 49.248 0 0 0 0 14l2.5 2.5a106.268 106.268 0 0 1 14 4.5c-6.644.153-12.477-1.847-17.5-6-.64 1.765-.473 3.432.5 5-1.968-3.507-2.968-7.507-3-12 .466-5.696 1.799-11.03 4-16l-1-5a37.151 37.151 0 0 1-4.5-2 366.2 366.2 0 0 1 3.5-74.5 274.43 274.43 0 0 0-3.5-24.5 114.54 114.54 0 0 0-6 13 379.701 379.701 0 0 1-8 26 338.374 338.374 0 0 0-21 28 74.277 74.277 0 0 0-5 16c-3.057.951-6.223 1.284-9.5 1 .602 3.968.602 7.802 0 11.5 2.833 1.833 2.667 3.333-.5 4.5l-1-1c-.282 8.327-1.95 16.327-5 24-8.728 2.702-15.061-.298-19-9-2.808-10.885-3.141-21.885-1-33 .188-4.377 1.521-8.377 4-12a38.192 38.192 0 0 1 10-3c.445-14.557 6.445-26.224 18-35a27.876 27.876 0 0 0 1.5-11l2 1a32.438 32.438 0 0 1-.5 8 148.73 148.73 0 0 1-13 16c-5.82 8.538-6.82 17.538-3 27 2.938 6.113 7.772 9.113 14.5 9 .435-6.883 2.602-13.216 6.5-19a394.109 394.109 0 0 0 20-27c2.776-14.868 8.276-28.534 16.5-41Z" style="opacity:.714"/><path fill="#b69353" d="M124.5 215.5c1.509 10.128 2.175 20.462 2 31-1.363-10.138-2.03-20.471-2-31Z" style="opacity:1"/><path fill="#f4f4f4" d="m36.5 322.5 5 2c.237 1.291-.096 2.291-1 3a13.115 13.115 0 0 0-7 1c2.475.464 4.475 1.464 6 3-5.333.333-5.333.667 0 1 .14 1.624-.527 2.79-2 3.5 1.26 2.213 1.926 4.713 2 7.5.446 5.389-.888 10.223-4 14.5-3.76 1.176-6.593.01-8.5-3.5-3.597-7.748-5.097-15.914-4.5-24.5-.924-8.133.743-15.633 5-22.5a15.417 15.417 0 0 1 7-1 47.635 47.635 0 0 0-2 9c-.341 3.318.992 5.652 4 7Z" style="opacity:1"/><path fill="#b5b5b5" d="M20.5 324.5c.237-1.291-.096-2.291-1-3a27.19 27.19 0 0 1 3.5-12c.654-1.196 1.154-1.196 1.5 0-2.058 4.946-3.392 9.946-4 15Z" style="opacity:1"/><path fill="#a25625" d="M34.5 310.5a97.504 97.504 0 0 1 7 11c-2.544.396-4.711-.271-6.5-2a40.939 40.939 0 0 1-.5-9Z" style="opacity:1"/><path fill="#747474" d="M36.5 322.5a9.86 9.86 0 0 1 6 1c-.124.607-.457.94-1 1l-5-2Z" style="opacity:1"/><path fill="#a9a9a9" d="M40.5 327.5c.268 1.599-.066 2.932-1 4-1.525-1.536-3.525-2.536-6-3a13.115 13.115 0 0 1 7-1Z" style="opacity:1"/><path fill="#a75927" d="M115.5 340.5v7c-4 2-7 5-9 9-1.792.134-3.458-.199-5-1v-16a49.273 49.273 0 0 0 11-1c1.53.14 2.53.807 3 2Z" style="opacity:1"/><path fill="#f7f7f7" d="M115.5 347.5a4.934 4.934 0 0 1 3 .5c3.547 2.622 3.547 4.955 0 7 1.82-.476 3.487-.309 5 .5-.437 1.574-1.437 2.741-3 3.5 1.925-.135 3.925-.302 6-.5 4.071 5.205 9.404 8.705 16 10.5 1.825 1.466 2.325 3.299 1.5 5.5-8.112 1.181-16.279 1.181-24.5 0-1.068-.934-2.401-1.268-4-1a106.268 106.268 0 0 0-14-4.5l-2.5-2.5a49.248 49.248 0 0 1 0-14l1-1c.232 1.237.732 2.237 1.5 3v1c1.077 3.472 2.744 3.805 5 1a57.51 57.51 0 0 0 9-9Z" style="opacity:1"/><path fill="#3d3b3a" d="M115.5 347.5a57.51 57.51 0 0 1-9 9c2-4 5-7 9-9Z" style="opacity:1"/><path fill="#c3c3c3" d="M19.5 321.5c.904.709 1.237 1.709 1 3a93.309 93.309 0 0 0 4.5 30c2.56 4.25 6.394 6.083 11.5 5.5-3.434 1.924-6.767 1.591-10-1-6.404-6.844-9.07-15.011-8-24.5.15-4.359.483-8.692 1-13Z" style="opacity:1"/><path fill="#4a3f3b" d="M101.5 355.5c1.542.801 3.208 1.134 5 1-2.256 2.805-3.923 2.472-5-1Z" style="opacity:1"/><path fill="#666" d="m123.5 355.5 3 3c-2.075.198-4.075.365-6 .5 1.563-.759 2.563-1.926 3-3.5Z" style="opacity:1"/><path fill="#d2d2d2" d="M115.5 373.5c1.599-.268 2.932.066 4 1 8.826 3.916 17.659 3.916 26.5 0 .783 1.933.283 3.433-1.5 4.5a35.063 35.063 0 0 1-15 1 209.999 209.999 0 0 1-31-7.5c-.973-1.568-1.14-3.235-.5-5 5.023 4.153 10.856 6.153 17.5 6Z" style="opacity:1"/></svg>