<svg xmlns="http://www.w3.org/2000/svg" width="168" height="400" style="shape-rendering:geometricPrecision;text-rendering:geometricPrecision;image-rendering:optimizeQuality;fill-rule:evenodd;clip-rule:evenodd"><path style="opacity:.901" fill="#b3b3c7" d="M101.5 29.5v3a76.94 76.94 0 0 1-10 1c.237-1.291-.096-2.291-1-3 1.606-19.628 5.272-19.961 11-1Z"/><path style="opacity:.935" fill="#b2b2c6" d="M82.5 32.5c.01 1.517.677 2.684 2 3.5L74 46.5a49.78 49.78 0 0 0-2.5-7 163.245 163.245 0 0 1-1-18 4.932 4.932 0 0 1 3 .5c2.89 3.624 5.89 7.124 9 10.5Z"/><path style="opacity:.97" fill="#b3b3c7" d="M116.5 36.5a431.73 431.73 0 0 1-8-5 84.022 84.022 0 0 1 7.5-8 84.9 84.9 0 0 1 .5 13Z"/><path style="opacity:.995" fill="#8481ce" d="M101.5 29.5a54.299 54.299 0 0 0 7 2 431.73 431.73 0 0 0 8 5c.667 0 1 .333 1 1-1.879-.107-2.212.393-1 1.5 8.153 2.987 13.819 8.487 17 16.5-.172.992.162 1.658 1 2a24.935 24.935 0 0 1-.5 7c-.718-.95-1.551-1.117-2.5-.5a18.476 18.476 0 0 1 2 3.5h-2a6.544 6.544 0 0 1-3-3c.082-1.752-.751-2.752-2.5-3-1.03.336-1.53 1.003-1.5 2l-2-2a420.27 420.27 0 0 0-21-1c-3.635-.246-6.968.42-10 2-.949-.652-2.115-.986-3.5-1-3.175.446-6.342.946-9.5 1.5-3.593 4.857-5.427 10.357-5.5 16.5-4.453-4.784-9.12-5.118-14-1-2.367 7.618.3 12.285 8 14 2.151-.143 3.818-1.143 5-3 2.82 5.992 6.82 10.991 12 15 .692.937.525 1.603-.5 2a32.462 32.462 0 0 0-8 .5c-2.74 2.706-5.907 3.206-9.5 1.5a601.335 601.335 0 0 1-3.5 3c-.886-.825-1.219-1.825-1-3a161.58 161.58 0 0 1-16 1c.219 1.175-.114 2.175-1 3-1.247-1.506-1.247-3.006 0-4.5L34 101.5c-1.908 2.832-2.741 2.499-2.5-1a23.743 23.743 0 0 0-8.5 1c-1.885-.362-2.719-1.529-2.5-3.5 3.28-7.4 6.447-14.9 9.5-22.5 3.911-8.047 10.411-12.214 19.5-12.5-9.275-.53-16.608 2.97-22 10.5-1.083-.865-1.25-1.865-.5-3A32.64 32.64 0 0 1 38.5 62a45 45 0 0 0 14-4 267.782 267.782 0 0 1 14-16 19.16 19.16 0 0 1 5-2.5 49.78 49.78 0 0 1 2.5 7L84.5 36c-1.323-.816-1.99-1.983-2-3.5a18.976 18.976 0 0 1 8-2c.904.709 1.237 1.709 1 3a76.94 76.94 0 0 0 10-1v-3Z"/><path style="opacity:.648" fill="#c0aaf1" d="M117.5 37.5c12.29 4.964 19.956 13.964 23 27-.825.886-1.825 1.219-3 1-.233-3.042-1.233-5.708-3-8 .172-.992-.162-1.658-1-2-3.181-8.013-8.847-13.513-17-16.5-1.212-1.107-.879-1.607 1-1.5Z"/><path style="opacity:1" fill="#c98a69" d="M122.5 61.5c-6.452 1.115-10.785 4.782-13 11a173.333 173.333 0 0 0-3 4c-.65-1.684-1.65-3.017-3-4-2.546-5.223-6.546-8.557-12-10 3.032-1.58 6.365-2.246 10-2 7.038.16 14.038.493 21 1Z"/><path style="opacity:1" fill="#e9e9f4" d="M91.5 62.5c5.454 1.443 9.454 4.777 12 10v9c-4.623 8.433-11.29 10.267-20 5.5-5.217-5.296-6.384-11.463-3.5-18.5 2.954-3.727 6.788-5.727 11.5-6Z"/><path style="opacity:1" fill="#e8e8f3" d="m122.5 61.5 2 2c1.068.934 2.401 1.268 4 1a6.544 6.544 0 0 0 3 3c3.868 4.403 4.868 9.403 3 15-1.739 2.743-4.073 4.743-7 6-6.569 1.556-12.235-.11-17-5a39.711 39.711 0 0 1-1-11c2.215-6.218 6.548-9.885 13-11Z"/><path style="opacity:1" fill="#ae8577" d="M128.5 64.5c-1.599.268-2.932-.066-4-1-.03-.997.47-1.664 1.5-2 1.749.248 2.582 1.248 2.5 3Z"/><path style="opacity:.466" fill="#101012" d="M131.5 67.5h2c2.633 4.572 3.633 9.572 3 15h-2c1.868-5.597.868-10.597-3-15Z"/><path style="opacity:1" fill="#d08e69" d="M91.5 62.5c-4.712.273-8.546 2.273-11.5 6-2.884 7.037-1.717 13.204 3.5 18.5 8.71 4.767 15.377 2.933 20-5.5.874-2.19 2.541-3.19 5-3-.38 2.198.287 3.865 2 5 4.765 4.89 10.431 6.556 17 5-4.901 12.582-13.901 19.582-27 21-.475 2.582.192 4.582 2 6-.416 2.252-1.749 3.752-4 4.5-7.69 1.153-12.69-2.014-15-9.5v-4c1.025-.397 1.192-1.063.5-2-5.18-4.009-9.18-9.008-12-15-1.182 1.857-2.849 2.857-5 3-7.7-1.715-10.367-6.382-8-14 4.88-4.118 9.547-3.784 14 1 .073-6.143 1.907-11.643 5.5-16.5a281.573 281.573 0 0 1 9.5-1.5c1.385.014 2.551.348 3.5 1Z"/><path style="opacity:1" fill="#876756" d="M103.5 72.5c1.35.983 2.35 2.316 3 4a173.333 173.333 0 0 1 3-4c-.177 3.734.156 7.4 1 11-1.713-1.135-2.38-2.802-2-5-2.459-.19-4.126.81-5 3v-9Z"/><path style="opacity:1" fill="#837fcc" d="M134.5 82.5h2a120.095 120.095 0 0 1 4 14.5c.517 3.195-.483 4.362-3 3.5v3c-4.911.616-9.577 2.116-14 4.5a23.711 23.711 0 0 1-10-.5 38.496 38.496 0 0 1-13 2c13.099-1.418 22.099-8.418 27-21 2.927-1.257 5.261-3.257 7-6Zm3 18c-1.745-3.385-2.245-7.052-1.5-11a27.865 27.865 0 0 1 1.5 11Z"/><path style="opacity:.991" fill="#5a809d" d="M83.5 110.5c2.31 7.486 7.31 10.653 15 9.5 2.251-.748 3.584-2.248 4-4.5-.219-1.175.114-2.175 1-3a44.684 44.684 0 0 1 7 3c7.49 5.299 11.657 12.633 12.5 22 .804-3.704.304-7.204-1.5-10.5 1.244-.456 2.077.044 2.5 1.5a98.836 98.836 0 0 1-.5 19h-3c-6.447-5.275-12.781-5.275-19 0-2.573-1.055-5.24-1.222-8-.5a42.231 42.231 0 0 1-8 3.5c-4.096-1.523-8.43-2.523-13-3 .397-12.916-5.27-21.916-17-27a397.026 397.026 0 0 1 24-10.5c1.428-.579 2.762-.412 4 .5Z"/><path style="opacity:.991" fill="#6cc0bb" d="M110.5 115.5c5.003-.415 9.17 1.252 12.5 5a183.434 183.434 0 0 1 19 40c2.573 13.219-2.594 21.219-15.5 24-9.655.753-18.821-.914-27.5-5-10.006 10.17-22.173 14.504-36.5 13-10.728-2.777-19.561-8.443-26.5-17a42.1 42.1 0 0 1 1-16 774.927 774.927 0 0 1 9-30c1.743-4.579 4.91-7.579 9.5-9 11.73 5.084 17.397 14.084 17 27-5.585-.289-10.085 1.711-13.5 6-.814 2.402-.647 4.735.5 7a62.475 62.475 0 0 0 7.5-8 155.107 155.107 0 0 1-3.5 9.5c1.466 4.454 3.632 4.621 6.5.5.955-3.263 2.788-5.43 5.5-6.5-2.246 2.427-2.912 5.094-2 8 1 .667 2 .667 3 0 3.248-4.4 6.248-8.9 9-13.5a42.231 42.231 0 0 0 8-3.5c2.76-.722 5.427-.555 8 .5 3.523 3.511 7.69 5.844 12.5 7 2.526-.065 4.859-.732 7-2 .384-1.697.218-3.363-.5-5h3a98.836 98.836 0 0 0 .5-19c-.423-1.456-1.256-1.956-2.5-1.5 1.804 3.296 2.304 6.796 1.5 10.5-.843-9.367-5.01-16.701-12.5-22Z"/><path style="opacity:1" fill="#d4936e" d="M120.5 147.5c.718 1.637.884 3.303.5 5-2.141 1.268-4.474 1.935-7 2-4.81-1.156-8.977-3.489-12.5-7 6.219-5.275 12.553-5.275 19 0Z"/><path style="opacity:1" fill="#d5936d" d="M72.5 147.5c4.57.477 8.904 1.477 13 3-2.752 4.6-5.752 9.1-9 13.5-1 .667-2 .667-3 0-.912-2.906-.246-5.573 2-8-2.712 1.07-4.545 3.237-5.5 6.5-2.868 4.121-5.034 3.954-6.5-.5a155.107 155.107 0 0 0 3.5-9.5 62.475 62.475 0 0 1-7.5 8c-1.147-2.265-1.314-4.598-.5-7 3.415-4.289 7.915-6.289 13.5-6Z"/><path style="opacity:1" fill="#6099a9" d="M129.5 146.5c4.068.524 6.735 2.69 8 6.5l-1 1.5c-2.68-3.182-6.013-5.348-10-6.5 1.237-.232 2.237-.732 3-1.5Z"/><path style="opacity:.99" fill="#5a809d" d="M126.5 184.5c2.447 8.011 2.447 16.011 0 24a27.287 27.287 0 0 1 .5 11c-.383.556-.883.889-1.5 1a139.2 139.2 0 0 0-23 1c-12.662.74-25.329 1.407-38 2-.996.086-1.83-.248-2.5-1a154.34 154.34 0 0 1 .5-30c14.327 1.504 26.494-2.83 36.5-13 8.679 4.086 17.845 5.753 27.5 5Z"/><path style="opacity:.989" fill="#774e44" d="M125.5 220.5a1503.749 1503.749 0 0 0-1.5 101 305.407 305.407 0 0 1 4.5 24c-7.03-1.549-13.697-.549-20 3-2.371-13.813-5.871-27.479-10.5-41a172.168 172.168 0 0 1 1.5-33.5c-.395-7.141-1.729-13.975-4-20.5a554.76 554.76 0 0 0 7-32 139.2 139.2 0 0 1 23-1Z"/><path style="opacity:.975" fill="#a97858" d="M102.5 221.5a554.76 554.76 0 0 1-7 32 9852.349 9852.349 0 0 1-10 74c1.927 8.769 2.26 17.436 1 26-4.386-3.772-9.053-3.938-14-.5a19.565 19.565 0 0 1-4 3.5c-.91-12.069-3.078-24.069-6.5-36a227.223 227.223 0 0 1 2-43c.5-17.997.667-35.997.5-54 12.671-.593 25.338-1.26 38-2Z"/><path style="opacity:.934" fill="#402f2b" d="M128.5 345.5a112.205 112.205 0 0 0 17.5 13c.92 2.808.087 4.975-2.5 6.5-9.63 2.14-18.464.307-26.5-5.5-3.758.652-6.425-1.015-8-5a18.453 18.453 0 0 1-.5-6c6.303-3.549 12.97-4.549 20-3Z"/><path style="opacity:.938" fill="#42302c" d="M86.5 353.5c4.92 15.175-.247 24.508-15.5 28-5.798-.297-8.63-3.297-8.5-9a81.103 81.103 0 0 1 6-16 19.565 19.565 0 0 0 4-3.5c4.947-3.438 9.614-3.272 14 .5Z"/><path style="opacity:1" fill="#866048" d="M123.5 359.5c.235-.597.735-.93 1.5-1a56.67 56.67 0 0 0 15.5 2.5c-5.85.948-11.517.448-17-1.5Z"/></svg>