<?xml version="1.0" encoding="UTF-8"?>
<!DOCTYPE svg PUBLIC "-//W3C//DTD SVG 1.1//EN" "http://www.w3.org/Graphics/SVG/1.1/DTD/svg11.dtd">
<svg xmlns="http://www.w3.org/2000/svg" version="1.1" width="153px" height="400px" style="shape-rendering:geometricPrecision; text-rendering:geometricPrecision; image-rendering:optimizeQuality; fill-rule:evenodd; clip-rule:evenodd" xmlns:xlink="http://www.w3.org/1999/xlink">
<g><path style="opacity:0.982" fill="#603830" d="M 111.5,69.5 C 107.241,65.359 102.241,62.1923 96.5,60C 95.365,59.2506 94.365,59.4173 93.5,60.5C 94.6053,61.8924 95.9386,63.059 97.5,64C 96.8095,65.0674 96.3095,66.2341 96,67.5C 92.5334,63.6689 88.7001,60.1689 84.5,57C 76.4352,54.8903 68.4352,52.7236 60.5,50.5C 60.7254,56.855 60.892,63.1884 61,69.5C 60,68.5 59,67.5 58,66.5C 56.6338,71.3127 54.9672,75.9794 53,80.5C 51.6411,76.9934 49.4744,74.3267 46.5,72.5C 44.1343,69.2477 42.6343,65.581 42,61.5C 40.6124,62.5536 39.1124,62.7203 37.5,62C 39.3772,60.8147 41.3772,59.8147 43.5,59C 41.0995,58.8142 38.7662,58.3142 36.5,57.5C 40.3181,54.1824 43.9848,50.6824 47.5,47C 49.9787,46.1061 52.312,45.7728 54.5,46C 52.6533,43.4209 52.1533,40.5876 53,37.5C 55.5572,36.3543 56.8905,37.3543 57,40.5C 57.2261,34.4803 59.3927,29.3137 63.5,25C 64.8989,24.4054 66.2322,24.5721 67.5,25.5C 74.1622,20.7682 81.4955,19.1015 89.5,20.5C 87.3501,23.1506 85.0168,25.6506 82.5,28C 88.7812,27.4648 95.1145,27.4648 101.5,28C 105.714,28.7738 109.381,30.6071 112.5,33.5C 110.726,34.1867 109.059,35.0201 107.5,36C 114.516,40.6774 119.683,46.8441 123,54.5C 123.808,56.5787 123.641,58.5787 122.5,60.5C 121.749,59.624 121.249,58.624 121,57.5C 121.414,63.5562 119.747,68.8895 116,73.5C 114.629,71.9586 113.129,70.6253 111.5,69.5 Z"/></g>
<g><path style="opacity:1" fill="#865038" d="M 79.5,32.5 C 81.6877,33.5357 81.6877,35.0357 79.5,37C 87.3306,37.0363 94.3306,39.3697 100.5,44C 93.2667,40.7764 85.6,38.6097 77.5,37.5C 78.5063,36.6043 78.5063,35.9377 77.5,35.5C 75.2985,37.268 72.9652,38.4346 70.5,39C 73.402,36.5828 76.402,34.4161 79.5,32.5 Z"/></g>
<g><path style="opacity:0.995" fill="#ae6841" d="M 111.5,69.5 C 113.27,87.3266 105.937,99.3266 89.5,105.5C 88.1667,105.5 86.8333,105.5 85.5,105.5C 85.1667,105.5 84.8333,105.5 84.5,105.5C 82.7839,105.629 81.1172,105.962 79.5,106.5C 77.5,106.5 75.5,106.5 73.5,106.5C 70.284,106.655 67.6174,105.655 65.5,103.5C 63.5889,101.083 61.4222,98.7496 59,96.5C 57.6322,93.8137 56.2989,91.147 55,88.5C 49.3614,91.8394 44.6947,90.8394 41,85.5C 39.1044,79.4345 40.9378,75.1012 46.5,72.5C 49.4744,74.3267 51.6411,76.9934 53,80.5C 54.9672,75.9794 56.6338,71.3127 58,66.5C 59,67.5 60,68.5 61,69.5C 60.892,63.1884 60.7254,56.855 60.5,50.5C 68.4352,52.7236 76.4352,54.8903 84.5,57C 88.7001,60.1689 92.5334,63.6689 96,67.5C 96.3095,66.2341 96.8095,65.0674 97.5,64C 95.9386,63.059 94.6053,61.8924 93.5,60.5C 94.365,59.4173 95.365,59.2506 96.5,60C 102.241,62.1923 107.241,65.359 111.5,69.5 Z"/></g>
<g><path style="opacity:1" fill="#090301" d="M 79.5,71.5 C 81.4646,71.9483 81.7979,72.9483 80.5,74.5C 79.6143,73.675 79.281,72.675 79.5,71.5 Z"/></g>
<g><path style="opacity:1" fill="#120803" d="M 92.5,71.5 C 94.4646,71.9483 94.7979,72.9483 93.5,74.5C 91.4807,73.8671 91.1474,72.8671 92.5,71.5 Z"/></g>
<g><path style="opacity:1" fill="#e0dbdc" d="M 66.5,80.5 C 71.7788,83.476 77.1121,86.476 82.5,89.5C 78.327,93.8628 73.6604,94.5295 68.5,91.5C 66.6764,88.1538 66.0097,84.4872 66.5,80.5 Z"/></g>
<g><path style="opacity:1" fill="#4b3c37" d="M 66.5,80.5 C 66.0097,84.4872 66.6764,88.1538 68.5,91.5C 67.5041,91.5858 66.6708,91.2524 66,90.5C 65.1925,86.9733 65.3592,83.6399 66.5,80.5 Z"/></g>
<g><path style="opacity:1" fill="#565251" d="M 65.5,103.5 C 67.6174,105.655 70.284,106.655 73.5,106.5C 74.5676,107.434 75.901,107.768 77.5,107.5C 75.6693,114.681 74.6693,122.014 74.5,129.5C 70.7073,129.269 67.3739,127.935 64.5,125.5C 64.1667,125.5 63.8333,125.5 63.5,125.5C 62.1201,125.038 61.4534,124.038 61.5,122.5C 62.1369,119.893 63.3035,117.56 65,115.5C 65.6667,112.5 65.6667,109.5 65,106.5C 64.7115,112.596 62.5449,117.93 58.5,122.5C 54.7624,119.083 54.7624,115.417 58.5,111.5C 57.675,110.614 56.675,110.281 55.5,110.5C 54.9062,102.795 58.2395,100.462 65.5,103.5 Z"/></g>
<g><path style="opacity:1" fill="#565251" d="M 84.5,105.5 C 84.821,106.817 85.1543,108.151 85.5,109.5C 82.8737,114.36 82.8737,119.194 85.5,124C 84.3076,126.355 82.641,128.188 80.5,129.5C 80.1667,129.5 79.8333,129.5 79.5,129.5C 78.5,129.5 77.5,129.5 76.5,129.5C 76.5736,121.44 77.5736,113.773 79.5,106.5C 81.1172,105.962 82.7839,105.629 84.5,105.5 Z"/></g>
<g><path style="opacity:0.991" fill="#595453" d="M 85.5,105.5 C 86.8333,105.5 88.1667,105.5 89.5,105.5C 89.7713,107.312 90.438,108.978 91.5,110.5C 99.3573,114.526 106.524,119.526 113,125.5C 115.42,130.927 117.087,136.593 118,142.5C 120.333,146.833 122.667,151.167 125,155.5C 126.754,162.915 124.588,168.748 118.5,173C 115.937,174.079 113.271,174.579 110.5,174.5C 110.5,173.833 110.167,173.5 109.5,173.5C 111.463,170.482 111.963,167.149 111,163.5C 107.905,160.308 105.572,156.641 104,152.5C 101.602,149.892 98.7688,148.225 95.5,147.5C 96.6378,144.696 96.8045,141.696 96,138.5C 95.2181,131.822 93.3847,125.488 90.5,119.5C 90.44,118.957 90.1067,118.624 89.5,118.5C 88.1861,119.313 87.0195,120.313 86,121.5C 86.0392,116.082 85.8725,110.748 85.5,105.5 Z"/></g>
<g><path style="opacity:0.988" fill="#7b6e6b" d="M 63.5,125.5 C 63.3766,131.601 64.0433,137.601 65.5,143.5C 65.3122,147.252 64.6455,150.919 63.5,154.5C 63.5427,155.416 63.8761,156.083 64.5,156.5C 61.3659,161.103 59.0325,166.103 57.5,171.5C 58.1372,176.131 60.8039,178.131 65.5,177.5C 60.6669,188.284 59.1669,199.617 61,211.5C 61.3333,205.167 61.6667,198.833 62,192.5C 63.8385,186.826 65.6719,181.159 67.5,175.5C 69.3879,174.06 71.0546,172.394 72.5,170.5C 74.6738,174.663 77.3405,175.33 80.5,172.5C 81.9517,174.848 82.6183,177.514 82.5,180.5C 80.5456,187.088 80.2123,193.755 81.5,200.5C 79.0581,206.238 78.0581,212.238 78.5,218.5C 68.1667,218.5 57.8333,218.5 47.5,218.5C 44.8806,218.768 42.3806,218.435 40,217.5C 40.7716,212.663 39.4382,208.33 36,204.5C 35.0886,198.565 36.2553,193.065 39.5,188C 21.6553,187.146 14.822,177.979 19,160.5C 21.3333,156.833 23.6667,153.167 26,149.5C 27.8882,142.953 29.2215,136.286 30,129.5C 31.0174,124.288 33.8508,120.455 38.5,118C 44.1544,115.396 49.8211,112.896 55.5,110.5C 56.675,110.281 57.675,110.614 58.5,111.5C 54.7624,115.417 54.7624,119.083 58.5,122.5C 62.5449,117.93 64.7115,112.596 65,106.5C 65.6667,109.5 65.6667,112.5 65,115.5C 63.3035,117.56 62.1369,119.893 61.5,122.5C 61.4534,124.038 62.1201,125.038 63.5,125.5 Z"/></g>
<g><path style="opacity:1" fill="#7c6e6a" d="M 84.5,105.5 C 84.8333,105.5 85.1667,105.5 85.5,105.5C 85.8725,110.748 86.0392,116.082 86,121.5C 87.0195,120.313 88.1861,119.313 89.5,118.5C 90.1067,118.624 90.44,118.957 90.5,119.5C 89.9569,119.56 89.6236,119.893 89.5,120.5C 92.9985,129.157 94.6651,138.157 94.5,147.5C 90.515,147.629 89.1817,149.463 90.5,153C 92.9355,153.853 95.2688,154.853 97.5,156C 94.666,156.045 92.166,156.879 90,158.5C 89.3162,159.784 89.4829,160.951 90.5,162C 92.5767,162.192 94.5767,162.692 96.5,163.5C 93.1763,164.159 91.8429,166.159 92.5,169.5C 95.8499,169.335 99.1832,169.502 102.5,170C 104.527,171.879 106.86,173.046 109.5,173.5C 110.167,173.5 110.5,173.833 110.5,174.5C 110.652,184.579 109.986,194.579 108.5,204.5C 109.068,207.588 109.068,210.588 108.5,213.5C 102.772,215.968 96.772,217.301 90.5,217.5C 87.1667,217.5 83.8333,217.5 80.5,217.5C 81.6675,205.013 83.0008,192.513 84.5,180C 84.1408,176.428 83.4741,172.928 82.5,169.5C 84.8184,169.182 86.1517,167.848 86.5,165.5C 85.5349,163.211 84.2016,161.211 82.5,159.5C 83.7832,156.31 84.4499,152.976 84.5,149.5C 83.1305,142.713 81.7972,136.047 80.5,129.5C 82.641,128.188 84.3076,126.355 85.5,124C 82.8737,119.194 82.8737,114.36 85.5,109.5C 85.1543,108.151 84.821,106.817 84.5,105.5 Z"/></g>
<g><path style="opacity:1" fill="#acafb4" d="M 90.5,119.5 C 93.3847,125.488 95.2181,131.822 96,138.5C 96.8045,141.696 96.6378,144.696 95.5,147.5C 95.1667,147.5 94.8333,147.5 94.5,147.5C 94.6651,138.157 92.9985,129.157 89.5,120.5C 89.6236,119.893 89.9569,119.56 90.5,119.5 Z"/></g>
<g><path style="opacity:1" fill="#7a6c69" d="M 73.5,106.5 C 75.5,106.5 77.5,106.5 79.5,106.5C 77.5736,113.773 76.5736,121.44 76.5,129.5C 77.5,129.5 78.5,129.5 79.5,129.5C 80.0763,136.229 81.0763,142.896 82.5,149.5C 82.331,152.533 81.9977,155.533 81.5,158.5C 71.2426,157.076 70.9093,154.576 80.5,151C 81.3366,149.989 81.67,148.822 81.5,147.5C 78.8127,147.336 76.146,147.503 73.5,148C 70.9528,150.054 68.2861,151.887 65.5,153.5C 66.6782,150.459 67.3449,147.292 67.5,144C 66.2567,137.863 65.2567,131.697 64.5,125.5C 67.3739,127.935 70.7073,129.269 74.5,129.5C 74.6693,122.014 75.6693,114.681 77.5,107.5C 75.901,107.768 74.5676,107.434 73.5,106.5 Z"/></g>
<g><path style="opacity:1" fill="#b2b7bc" d="M 40.5,149.5 C 42.9118,146.562 44.7451,143.229 46,139.5C 46.3333,133.833 46.6667,128.167 47,122.5C 47.9533,120.545 49.2866,118.878 51,117.5C 50.6017,119.631 49.6017,121.631 48,123.5C 47.6667,129.5 47.3333,135.5 47,141.5C 45.7261,144.936 43.5594,147.603 40.5,149.5 Z"/></g>
<g><path style="opacity:1" fill="#aaacb0" d="M 30.5,154.5 C 31.6401,152.22 32.8068,149.886 34,147.5C 34.3333,141.5 34.6667,135.5 35,129.5C 35.4186,128.328 36.0853,127.328 37,126.5C 36.7454,133.091 36.4121,139.758 36,146.5C 34.896,149.721 33.0626,152.388 30.5,154.5 Z"/></g>
<g><path style="opacity:1" fill="#afb3b8" d="M 79.5,129.5 C 79.8333,129.5 80.1667,129.5 80.5,129.5C 81.7972,136.047 83.1305,142.713 84.5,149.5C 84.4499,152.976 83.7832,156.31 82.5,159.5C 81.8333,159.5 81.5,159.167 81.5,158.5C 81.9977,155.533 82.331,152.533 82.5,149.5C 81.0763,142.896 80.0763,136.229 79.5,129.5 Z"/></g>
<g><path style="opacity:1" fill="#af6944" d="M 81.5,158.5 C 81.5,159.167 81.8333,159.5 82.5,159.5C 84.2016,161.211 85.5349,163.211 86.5,165.5C 86.1517,167.848 84.8184,169.182 82.5,169.5C 81.8595,167.668 80.8595,167.335 79.5,168.5C 80.2458,169.736 80.5792,171.07 80.5,172.5C 77.3405,175.33 74.6738,174.663 72.5,170.5C 71.0546,172.394 69.3879,174.06 67.5,175.5C 66.5,175.833 65.8333,176.5 65.5,177.5C 60.8039,178.131 58.1372,176.131 57.5,171.5C 59.0325,166.103 61.3659,161.103 64.5,156.5C 65.1098,155.609 65.4431,154.609 65.5,153.5C 68.2861,151.887 70.9528,150.054 73.5,148C 76.146,147.503 78.8127,147.336 81.5,147.5C 81.67,148.822 81.3366,149.989 80.5,151C 70.9093,154.576 71.2426,157.076 81.5,158.5 Z"/></g>
<g><path style="opacity:1" fill="#afb2b7" d="M 63.5,125.5 C 63.8333,125.5 64.1667,125.5 64.5,125.5C 65.2567,131.697 66.2567,137.863 67.5,144C 67.3449,147.292 66.6782,150.459 65.5,153.5C 65.4431,154.609 65.1098,155.609 64.5,156.5C 63.8761,156.083 63.5427,155.416 63.5,154.5C 64.6455,150.919 65.3122,147.252 65.5,143.5C 64.0433,137.601 63.3766,131.601 63.5,125.5 Z"/></g>
<g><path style="opacity:1" fill="#af6943" d="M 94.5,147.5 C 94.8333,147.5 95.1667,147.5 95.5,147.5C 98.7688,148.225 101.602,149.892 104,152.5C 105.572,156.641 107.905,160.308 111,163.5C 111.963,167.149 111.463,170.482 109.5,173.5C 106.86,173.046 104.527,171.879 102.5,170C 99.1832,169.502 95.8499,169.335 92.5,169.5C 91.8429,166.159 93.1763,164.159 96.5,163.5C 94.5767,162.692 92.5767,162.192 90.5,162C 89.4829,160.951 89.3162,159.784 90,158.5C 92.166,156.879 94.666,156.045 97.5,156C 95.2688,154.853 92.9355,153.853 90.5,153C 89.1817,149.463 90.515,147.629 94.5,147.5 Z"/></g>
<g><path style="opacity:1" fill="#a9abaf" d="M 40.5,149.5 C 37.395,160.013 41.0616,164.013 51.5,161.5C 52.737,161.556 53.737,162.056 54.5,163C 42.3835,167.207 37.2168,163.041 39,150.5C 39.3826,149.944 39.8826,149.611 40.5,149.5 Z"/></g>
<g><path style="opacity:1" fill="#afb2b7" d="M 30.5,154.5 C 28.1833,158.117 26.85,162.117 26.5,166.5C 26.439,173.083 29.6056,176.75 36,177.5C 39.3333,176.833 42.6667,176.167 46,175.5C 49.9649,177.176 53.7982,178.176 57.5,178.5C 55.5787,179.641 53.5787,179.808 51.5,179C 49.8657,177.692 48.0324,176.858 46,176.5C 30.2415,182.056 23.5748,176.723 26,160.5C 27.2775,158.253 28.7775,156.253 30.5,154.5 Z"/></g>
<g><path style="opacity:1" fill="#acafb3" d="M 82.5,169.5 C 83.4741,172.928 84.1408,176.428 84.5,180C 83.0008,192.513 81.6675,205.013 80.5,217.5C 80.1583,218.338 79.4916,218.672 78.5,218.5C 78.0581,212.238 79.0581,206.238 81.5,200.5C 80.2123,193.755 80.5456,187.088 82.5,180.5C 82.6183,177.514 81.9517,174.848 80.5,172.5C 80.5792,171.07 80.2458,169.736 79.5,168.5C 80.8595,167.335 81.8595,167.668 82.5,169.5 Z"/></g>
<g><path style="opacity:1" fill="#afb2b7" d="M 95.5,170.5 C 97.053,173.24 98.8863,175.907 101,178.5C 99.8649,188.814 99.3649,199.147 99.5,209.5C 96.589,200.703 96.9223,192.036 100.5,183.5C 99.085,179.014 97.4184,174.681 95.5,170.5 Z"/></g>
<g><path style="opacity:1" fill="#b7bdc2" d="M 67.5,175.5 C 65.6719,181.159 63.8385,186.826 62,192.5C 61.6667,198.833 61.3333,205.167 61,211.5C 59.1669,199.617 60.6669,188.284 65.5,177.5C 65.8333,176.5 66.5,175.833 67.5,175.5 Z"/></g>
<g><path style="opacity:1" fill="#adb0b5" d="M 50.5,184.5 C 49.9096,190.975 49.9096,197.642 50.5,204.5C 50.3429,207.619 49.6763,210.619 48.5,213.5C 48.7116,208.064 48.3783,202.564 47.5,197C 48.4262,192.796 49.4262,188.629 50.5,184.5 Z"/></g>
<g><path style="opacity:0.986" fill="#4f456f" d="M 108.5,204.5 C 110.722,204.559 111.722,205.725 111.5,208C 110.21,217.973 109.21,227.973 108.5,238C 109.702,247.458 110.369,256.958 110.5,266.5C 108.541,284.463 106.875,302.463 105.5,320.5C 98.0271,323.966 91.3605,328.633 85.5,334.5C 83.3677,328.268 81.5343,321.935 80,315.5C 79.3689,303.455 79.8689,291.455 81.5,279.5C 81.485,273.414 80.8183,267.414 79.5,261.5C 79.3396,252.156 83.173,244.823 91,239.5C 90.9636,232.181 90.7969,224.848 90.5,217.5C 96.772,217.301 102.772,215.968 108.5,213.5C 109.068,210.588 109.068,207.588 108.5,204.5 Z"/></g>
<g><path style="opacity:0.986" fill="#9a5d3c" d="M 80.5,217.5 C 83.8333,217.5 87.1667,217.5 90.5,217.5C 90.7969,224.848 90.9636,232.181 91,239.5C 83.173,244.823 79.3396,252.156 79.5,261.5C 73.5961,283.03 69.5961,305.03 67.5,327.5C 67.7788,331.18 68.1121,334.847 68.5,338.5C 60.1031,336.982 51.7698,335.316 43.5,333.5C 40.6727,328.843 38.6727,323.843 37.5,318.5C 38.2606,314.311 39.5939,310.311 41.5,306.5C 40.403,302.585 39.7364,298.585 39.5,294.5C 41.6005,281.497 43.7671,268.497 46,255.5C 47.2519,243.199 47.7519,230.866 47.5,218.5C 57.8333,218.5 68.1667,218.5 78.5,218.5C 79.4916,218.672 80.1583,218.338 80.5,217.5 Z"/></g>
<g><path style="opacity:1" fill="#a3a8b7" d="M 96.5,221.5 C 97.1894,220.226 98.0228,220.226 99,221.5C 103.961,230.281 104.795,239.448 101.5,249C 101.721,252.271 102.388,255.437 103.5,258.5C 103.523,260.067 103.023,261.4 102,262.5C 101.647,261.328 101.813,260.162 102.5,259C 100.624,255.919 99.6243,252.586 99.5,249C 102.903,239.249 101.903,230.082 96.5,221.5 Z"/></g>
<g><path style="opacity:1" fill="#cfc0bb" d="M 79.5,235.5 C 81.1392,230.947 82.4725,226.28 83.5,221.5C 84.5591,224.845 84.3924,228.178 83,231.5C 82.34,233.324 81.1733,234.657 79.5,235.5 Z"/></g>
<g><path style="opacity:1" fill="#cbbab5" d="M 79.5,235.5 C 76.3121,238.368 73.1454,241.368 70,244.5C 69.6667,248.5 69.3333,252.5 69,256.5C 67.4227,258.901 66.5894,261.234 66.5,263.5C 66.1667,262.667 65.8333,261.833 65.5,261C 67.0494,255.98 67.8827,250.814 68,245.5C 70.7883,240.873 74.6217,237.539 79.5,235.5 Z"/></g>
<g><path style="opacity:1" fill="#78515b" d="M 96.5,309.5 C 99.0217,309.128 101.022,309.961 102.5,312C 100.707,314.795 98.5402,317.295 96,319.5C 95.3333,318.833 95.3333,318.167 96,317.5C 97.6851,315.983 99.1851,314.316 100.5,312.5C 99.6667,312.167 98.8333,311.833 98,311.5C 94.1756,313.058 90.6756,314.891 87.5,317C 90.1065,313.882 93.1065,311.382 96.5,309.5 Z"/></g>
<g><path style="opacity:0.963" fill="#c1cbd3" d="M 105.5,320.5 C 107.827,320.247 109.827,320.914 111.5,322.5C 112.676,325.636 112.676,328.803 111.5,332C 112.916,334.425 114.75,336.591 117,338.5C 117.973,340.392 118.64,342.392 119,344.5C 123.537,346.77 127.537,349.77 131,353.5C 132.417,359.824 129.917,363.657 123.5,365C 115.007,366.491 107.007,365.157 99.5,361C 94.4225,357.045 89.2558,353.211 84,349.5C 83.3333,347.5 83.3333,345.5 84,343.5C 86.9646,341.326 87.1313,338.992 84.5,336.5C 84.8627,335.817 85.1961,335.15 85.5,334.5C 91.3605,328.633 98.0271,323.966 105.5,320.5 Z"/></g>
<g><path style="opacity:1" fill="#6a4d63" d="M 47.5,307.5 C 47.56,306.957 47.8933,306.624 48.5,306.5C 56.0319,313.723 61.6986,322.223 65.5,332C 65.1667,332.5 64.8333,333 64.5,333.5C 59.7465,328.409 54.4131,324.076 48.5,320.5C 46.9755,322.483 45.9755,324.816 45.5,327.5C 43.5543,320.611 45.8876,318.444 52.5,321C 55.9646,323.463 59.1312,326.296 62,329.5C 62.1667,329 62.3333,328.5 62.5,328C 58.5838,320.318 53.5838,313.484 47.5,307.5 Z"/></g>
<g><path style="opacity:1" fill="#db4833" d="M 91.5,340.5 C 93.4841,340.484 94.4841,341.484 94.5,343.5C 93.1667,347.5 91.8333,347.5 90.5,343.5C 90.685,342.416 91.0183,341.416 91.5,340.5 Z"/></g>
<g><path style="opacity:1" fill="#ebeef1" d="M 43.5,333.5 C 51.7698,335.316 60.1031,336.982 68.5,338.5C 73.4944,348.762 73.6611,359.095 69,369.5C 62.3243,377.503 53.8243,380.336 43.5,378C 37.8216,376.143 35.655,372.309 37,366.5C 38.7137,364.957 40.2137,363.29 41.5,361.5C 39.8399,357.142 40.8399,353.476 44.5,350.5C 41.9433,346.055 39.9433,341.389 38.5,336.5C 39.4209,334.244 41.0876,333.244 43.5,333.5 Z"/></g>
<g><path style="opacity:1" fill="#db2b13" d="M 67.5,351.5 C 70.0838,352.048 71.0838,353.715 70.5,356.5C 69.5,356.5 68.5,356.5 67.5,356.5C 67.5,354.833 67.5,353.167 67.5,351.5 Z"/></g>
</svg>
