<svg xmlns="http://www.w3.org/2000/svg" width="176" height="400" style="shape-rendering:geometricPrecision;text-rendering:geometricPrecision;image-rendering:optimizeQuality;fill-rule:evenodd;clip-rule:evenodd"><path style="opacity:1" fill="#664b3c" d="M82.5 48.5a345.557 345.557 0 0 1 8-2c-2.378-2.576-5.378-3.576-9-3 1.306-.967 1.973-2.3 2-4 3.42-7.922 9.087-13.755 17-17.5 12.413-.936 20.579 4.564 24.5 16.5.495 1.973.662 3.973.5 6l-8-1v3a32.438 32.438 0 0 1-8-.5c2.429-.451 2.596-1.285.5-2.5-9.011 3.53-18.178 5.197-27.5 5Z"/><path style="opacity:.878" fill="#080503" d="M118.5 80.5c-1.77 2.002-3.103 4.336-4 7a39.26 39.26 0 0 0-3-11c-4.044.542-7.711-.291-11-2.5 7.362 2.536 14.362 1.536 21-3 4.977-3.77 6.644-8.603 5-14.5a72.268 72.268 0 0 0-7.5 3c-1.895-.115-3.562-.782-5-2-2.173 2.777-2.673 2.61-1.5-.5a36.266 36.266 0 0 0 7-.5c-1.827-1.987-2.827-4.32-3-7h-4c-1.296 7.902-5.629 10.068-13 6.5-.982-3.147-2.982-5.314-6-6.5-.683.363-1.35.696-2 1-3.59-.59-6.59-1.257-9-2 9.322.197 18.489-1.47 27.5-5 2.096 1.215 1.929 2.049-.5 2.5 2.646.497 5.313.664 8 .5v-3l8 1a18.452 18.452 0 0 0-.5-6c-3.921-11.936-12.087-17.436-24.5-16.5-7.913 3.745-13.58 9.578-17 17.5 2.4-11.398 9.4-18.065 21-20 7.009.755 12.843 3.755 17.5 9a218.636 218.636 0 0 1 8.5 20.5 307.229 307.229 0 0 0-2.5 17.5c-3.778 4.982-8.611 8.648-14.5 11 1.648.791 3.315 1.791 5 3Z"/><path style="opacity:1" fill="#d8d1d1" d="M81.5 43.5c3.622-.576 6.622.424 9 3a345.557 345.557 0 0 0-8 2c2.41.743 5.41 1.41 9 2-.474 3.657-1.807 3.824-4 .5-3.606-.528-5.939.972-7 4.5-.311.978-.978 1.645-2 2-7.19-5.361-6.19-10.028 3-14Z"/><path style="opacity:1" fill="#624839" d="M114.5 87.5c-.295 3.629-2.295 5.629-6 6a49.393 49.393 0 0 1-11-1c-5.184-2.319-8.517-6.319-10-12 1.836-3.137 4.503-5.637 8-7.5-4.252-2.419-7.252-5.919-9-10.5l-4-2c-.528-1.836-1.194-3.503-2-5 1.061-3.528 3.394-5.028 7-4.5 2.193 3.324 3.526 3.157 4-.5.65-.304 1.317-.637 2-1 3.018 1.186 5.018 3.353 6 6.5 7.371 3.568 11.704 1.402 13-6.5h4c.173 2.68 1.173 5.013 3 7a36.266 36.266 0 0 1-7 .5c-1.173 3.11-.673 3.277 1.5.5 1.438 1.218 3.105 1.885 5 2a72.268 72.268 0 0 1 7.5-3c1.644 5.897-.023 10.73-5 14.5-6.638 4.536-13.638 5.536-21 3 3.289 2.209 6.956 3.042 11 2.5a39.26 39.26 0 0 1 3 11Z"/><path style="opacity:.607" fill="#13100f" d="M83.5 39.5c-.027 1.7-.694 3.033-2 4-9.19 3.972-10.19 8.639-3 14 1.022-.355 1.689-1.022 2-2 .806 1.497 1.472 3.164 2 5l4 2c1.748 4.581 4.748 8.081 9 10.5-3.497 1.863-6.164 4.363-8 7.5-1.037-1.43-1.704-3.097-2-5 1.534.703 3.201.536 5-.5.95-.718 1.117-1.55.5-2.5-2.574-2.145-4.407-4.812-5.5-8-3.243-3.21-7.076-5.542-11.5-7a14.317 14.317 0 0 0-2.5-5.5 40.778 40.778 0 0 1 2.5-5.5 181.521 181.521 0 0 1 9.5-7Z"/><path style="opacity:1" fill="#9ad6d7" d="M82.5 75.5h3c.296 1.903.963 3.57 2 5 1.483 5.681 4.816 9.681 10 12 1.79 1.497 3.956 2.164 6.5 2 1.707-.008 3.207-.342 4.5-1 3.705-.371 5.705-2.371 6-6 .897-2.664 2.23-4.998 4-7 4.905 2.792 9.905 5.625 15 8.5 7.057 12.332 12.057 25.498 15 39.5-.564 6.971-3.564 12.471-9 16.5a84.902 84.902 0 0 1-13 .5c-3.104-1.275-6.104-1.275-9 0h-4a176.205 176.205 0 0 0-6.5-17 32.462 32.462 0 0 1-.5-8h-4c-6.506-3.821-13.506-4.821-21-3-2.036-1.706-3.036-4.039-3-7a54.882 54.882 0 0 0-2.5-10c-.448 3.571.052 6.904 1.5 10a73.756 73.756 0 0 0 2.5 14c.383.556.883.889 1.5 1 4.864.258 9.53 1.425 14 3.5 2.107 1.264 3.107 3.097 3 5.5a34.39 34.39 0 0 1-3 11 96.188 96.188 0 0 0-19-1c-1.765-.961-3.765-1.295-6-1-3.92.457-6.42-1.209-7.5-5a179.057 179.057 0 0 1-5-51 17.834 17.834 0 0 1 4.5-5.5 4430.662 4430.662 0 0 0 20-6.5Z"/><path style="opacity:.95" fill="#010101" d="M82.5 75.5a4430.662 4430.662 0 0 1-20 6.5 17.834 17.834 0 0 0-4.5 5.5 179.057 179.057 0 0 0 5 51c1.08 3.791 3.58 5.457 7.5 5-.709.904-1.709 1.237-3 1v11a204.602 204.602 0 0 0-4 25c24.997 7.628 50.33 8.961 76 4a123.111 123.111 0 0 0-3.5-37c-3.057-.951-6.223-1.284-9.5-1v-1a84.902 84.902 0 0 0 13-.5c5.436-4.029 8.436-9.529 9-16.5-2.943-14.002-7.943-27.168-15-39.5a4542.963 4542.963 0 0 1-15-8.5c7.235 1.367 13.401 4.7 18.5 10a153.741 153.741 0 0 1 13.5 36.5c-.309 5.841-1.809 11.341-4.5 16.5-2.295 2.565-5.128 4.231-8.5 5 4.626 11.675 6.126 23.675 4.5 36a14.748 14.748 0 0 1-4.5 3 29.925 29.925 0 0 1 1 7 819.694 819.694 0 0 0 0 139.5c.202 5.418-2.465 7.918-8 7.5.868 6.37 4.201 10.703 10 13a3.647 3.647 0 0 1-1 1.5l5 1c1.333.667 1.333 1.333 0 2 .949.617 1.782.451 2.5-.5a25.583 25.583 0 0 0 7 7c.495 1.973.662 3.973.5 6-4.659 3.711-9.992 4.878-16 3.5-9.371-1.51-18.038-4.677-26-9.5-.78-4.229.053-8.229 2.5-12a1627.45 1627.45 0 0 0-16-133 22.763 22.763 0 0 0-4 5 318.453 318.453 0 0 0-11 32 2309.053 2309.053 0 0 0-19 83c-1.356.88-2.856 1.214-4.5 1-.165 3.35.002 6.683.5 10 1.799 3.427 2.965 7.094 3.5 11a59.608 59.608 0 0 0-.5 6A142.86 142.86 0 0 1 41.5 380c-6.054 1.664-12.054 1.33-18-1-2.449-1.863-3.449-4.363-3-7.5l.5-5A89.576 89.576 0 0 1 37.5 355a83.535 83.535 0 0 0 4-7.5v7c-1 .333-1.667 1-2 2-2.37 1.19-4.37 2.857-6 5-.992-.172-1.658.162-2 1-4.514 1.007-7.014 3.674-7.5 8 3.257 2.928 7.09 3.762 11.5 2.5a139.984 139.984 0 0 1 25-9c1.37-3.3 1.036-6.467-1-9.5a184.223 184.223 0 0 1-3 2c-.438.065-.772-.101-1-.5 1.393-1.171 2.227-2.671 2.5-4.5.246-3.39.746-6.723 1.5-10a57.865 57.865 0 0 0-12-3c-.916.043-1.583.376-2 1-1.277-1.194-1.944-2.86-2-5 3.117-39.933 8.283-79.6 15.5-119a297.52 297.52 0 0 0 2-25 24.911 24.911 0 0 1 2.5-8.5c-1.68-.347-2.68-1.347-3-3a874.499 874.499 0 0 0 6-31.5c-4.655-5.771-7.488-12.437-8.5-20a167.805 167.805 0 0 1-2-40c1.588-4.552 4.755-7.385 9.5-8.5a103.325 103.325 0 0 1 17-3.5Z"/><path style="opacity:1" fill="#9ad7d8" d="M102.5 138.5c2.357-.163 4.69.003 7 .5a1393.76 1393.76 0 0 0 5 9c1.566.3 2.899-.2 4-1.5h8c3.277-.284 6.443.049 9.5 1a123.111 123.111 0 0 1 3.5 37c-25.67 4.961-51.003 3.628-76-4a204.602 204.602 0 0 1 4-25c.98-3.125 1.313-6.458 1-10h7c6.117 1.379 12.45 2.046 19 2 .996.086 1.83-.248 2.5-1a52.56 52.56 0 0 0 1.5-7c1.599.268 2.932-.066 4-1Z"/><path style="opacity:1" fill="#181918" d="M102.5 120.5h4a32.462 32.462 0 0 0 .5 8 176.205 176.205 0 0 1 6.5 17h4c.667 0 1 .333 1 1-1.101 1.3-2.434 1.8-4 1.5a1393.76 1393.76 0 0 1-5-9 24.935 24.935 0 0 0-7-.5c1.452-.802 3.118-1.302 5-1.5a47.478 47.478 0 0 1-8-4.5l.5-1c2.29 2.095 4.79 2.762 7.5 2-1.645-3.825-2.312-7.825-2-12-1.291.237-2.291-.096-3-1Z"/><path style="opacity:1" fill="#0a0e0f" d="M128.5 119.5h1v4c.137 1.28-2.197 1.613-7 1v-1h6v-4Z"/><path style="opacity:1" fill="#4c6b6c" d="M122.5 123.5v1a139.403 139.403 0 0 1-11-3.5c3.94-.114 7.607.72 11 2.5Z"/><path style="opacity:1" fill="#5f4637" d="M102.5 120.5c.709.904 1.709 1.237 3 1-.312 4.175.355 8.175 2 12-2.71.762-5.21.095-7.5-2l-.5 1a47.478 47.478 0 0 0 8 4.5c-1.882.198-3.548.698-5 1.5h-3c.268-1.599-.066-2.932-1-4 .107-2.403-.893-4.236-3-5.5-4.47-2.075-9.136-3.242-14-3.5-.732-2.766-.732-5.432 0-8 7.494-1.821 14.494-.821 21 3Z"/><path style="opacity:1" fill="#293434" d="M77.5 110.5h1c-.036 2.961.964 5.294 3 7-.732 2.568-.732 5.234 0 8-.617-.111-1.117-.444-1.5-1a73.756 73.756 0 0 1-2.5-14Z"/><path style="opacity:1" fill="#6c9899" d="M129.5 119.5h-1c-1.493-5.067-1.327-10.067.5-15 .448 1.724 1.282 2.391 2.5 2-1.846 4.082-2.513 8.415-2 13Z"/><path style="opacity:1" fill="#507272" d="M78.5 110.5h-1c-1.448-3.096-1.948-6.429-1.5-10a54.882 54.882 0 0 1 2.5 10Z"/><path style="opacity:1" fill="#425e5e" d="M63.5 101.5a32.424 32.424 0 0 1 8 8.5c-3.395-1.902-6.062-4.735-8-8.5Z"/><path style="opacity:1" fill="#0d0f0f" d="M97.5 92.5a49.393 49.393 0 0 0 11 1c-1.293.658-2.793.992-4.5 1-2.544.164-4.71-.503-6.5-2Z"/><path style="opacity:.88" fill="#4c6c6c" d="M70.5 143.5c2.235-.295 4.235.039 6 1-1.915-.284-3.581.049-5 1h-3c.313 3.542-.02 6.875-1 10v-11c1.291.237 2.291-.096 3-1Z"/><path style="opacity:1" fill="#161c1b" d="M98.5 134.5c.934 1.068 1.268 2.401 1 4h3c-1.068.934-2.401 1.268-4 1a52.56 52.56 0 0 1-1.5 7c-.67.752-1.504 1.086-2.5 1-6.117-1.379-12.45-2.046-19-2h-4c1.419-.951 3.085-1.284 5-1a96.188 96.188 0 0 1 19 1 34.39 34.39 0 0 0 3-11Z"/><path style="opacity:1" fill="#425e5f" d="M117.5 145.5c2.896-1.275 5.896-1.275 9 0v1h-8c0-.667-.333-1-1-1Z"/><path style="opacity:1" fill="#6d9899" d="M75.5 145.5c6.55-.046 12.883.621 19 2-6.55.046-12.883-.621-19-2Z"/><path style="opacity:1" fill="#63493a" d="M45.5 339.5c.417-.624 1.084-.957 2-1a57.865 57.865 0 0 1 12 3 65.825 65.825 0 0 0-1.5 10c-.273 1.829-1.107 3.329-2.5 4.5.228.399.562.565 1 .5-.342.838-1.008 1.172-2 1a114.542 114.542 0 0 1-3.5-8c-.67-.752-1.504-1.086-2.5-1a46.127 46.127 0 0 1-1.5-8c-.383-.556-.883-.889-1.5-1Z"/><path style="opacity:.552" fill="#0f0b09" d="M45.5 339.5c.617.111 1.117.444 1.5 1a46.127 46.127 0 0 0 1.5 8 21.434 21.434 0 0 0-7-1c.709-.904 1.709-1.237 3-1a51.648 51.648 0 0 0 1-7Z"/><path style="opacity:1" fill="#5c4436" d="M127.5 350.5c-2.071 1.391-3.738 3.224-5 5.5-1.744 1.454-3.411 1.621-5 .5v-16h12c.44 3.679-.227 7.012-2 10Z"/><path style="opacity:1" fill="#f1f1f1" d="M41.5 347.5a21.434 21.434 0 0 1 7 1c1.965 2.268 3.132 4.935 3.5 8 .67.752 1.504 1.086 2.5 1 .992.172 1.658-.162 2-1 .982-.641 1.982-1.307 3-2 2.036 3.033 2.37 6.2 1 9.5a139.984 139.984 0 0 0-25 9c-4.41 1.262-8.243.428-11.5-2.5.486-4.326 2.986-6.993 7.5-8 2.708.949 5.374.949 8 0a9.86 9.86 0 0 0-6-1c1.63-2.143 3.63-3.81 6-5 2.437.256 4.77.923 7 2l1-1c-2.245-.708-4.245-1.708-6-3v-7Z"/><path style="opacity:1" fill="#f0f0f0" d="M127.5 350.5c4.795-.641 6.461 1.193 5 5.5l18 9c2.58 2.544 2.58 5.044 0 7.5a24.49 24.49 0 0 1-6.5 2c-10.339-1.557-20.006-4.89-29-10-.821-3.054-.655-6.054.5-9 .683.363 1.35.696 2 1 1.589 1.121 3.256.954 5-.5 1.262-2.276 2.929-4.109 5-5.5Z"/><path style="opacity:1" fill="#1d1917" d="M48.5 348.5c.996-.086 1.83.248 2.5 1a114.542 114.542 0 0 0 3.5 8c-.996.086-1.83-.248-2.5-1-.368-3.065-1.535-5.732-3.5-8Z"/><path style="opacity:1" fill="#747474" d="M41.5 354.5c1.755 1.292 3.755 2.292 6 3l-1 1a21.029 21.029 0 0 0-7-2c.333-1 1-1.667 2-2Z"/><path style="opacity:1" fill="#6c6c6c" d="M31.5 362.5c.342-.838 1.008-1.172 2-1a9.86 9.86 0 0 1 6 1c-2.626.949-5.292.949-8 0Z"/><path style="opacity:.657" fill="#090909" d="M112.5 365.5c-.117 1.984.55 3.65 2 5 12.257 7.824 25.257 9.658 39 5.5.88-1.356 1.214-2.856 1-4.5 2.187 1.782 2.52 3.948 1 6.5-16.039 5.121-30.872 2.621-44.5-7.5-.877-2.174-.377-3.841 1.5-5Z"/><path style="opacity:1" fill="#e5e5e5" d="M57.5 365.5h4c-.061 2.092-1.061 3.592-3 4.5l-18 8c-5.421.839-10.755.506-16-1-2.877-4.733-2.21-5.4 2-2 2.667.667 5.333.667 8 0a7103.841 7103.841 0 0 1 23-9.5Z"/><path style="opacity:1" fill="#dadada" d="M112.5 365.5c7.962 4.823 16.629 7.99 26 9.5 6.008 1.378 11.341.211 16-3.5.214 1.644-.12 3.144-1 4.5-13.743 4.158-26.743 2.324-39-5.5-1.45-1.35-2.117-3.016-2-5Z"/></svg>